<svg viewBox="0 0 960 720" fill="none" stroke="none" stroke-linecap="square" stroke-miterlimit="10" xmlns="http://www.w3.org/2000/svg" xmlns:xlink="http://www.w3.org/1999/xlink" xmlns:bx="https://boxy-svg.com">
  <defs>
    <linearGradient id="gradient-2-1" gradientUnits="userSpaceOnUse" x1="496.527" y1="139.5" x2="496.527" y2="491.903" xlink:href="#gradient-2"/>
    <linearGradient id="gradient-2" bx:pinned="true">
      <stop offset="0" style="stop-color: rgb(2, 127, 97);"/>
      <stop offset="0.805" style="stop-color: rgb(1, 29, 40);"/>
    </linearGradient>
  </defs>
  <clipPath id="p.0">
    <path d="m0 0l960.0 0l0 720.0l-960.0 0l0 -720.0z" clip-rule="nonzero"/>
  </clipPath>
  <path stroke-width="1.0" stroke-linejoin="round" stroke-linecap="butt" d="M 435.2756 310.54187 C 435.2756 285.641235 455.299373 265.45526 479.999996 265.45526 C 491.86166000000003 265.45526 503.237484 270.205443 511.624935 278.660826 C 520.012386 287.11620899999997 524.724422 298.584166 524.724422 310.54186799999997 C 524.724422 335.44253299999997 504.700618 355.628478 479.999996 355.628478 C 455.299373 355.628478 435.2756 335.44253399999997 435.2756 310.54186799999997 L 435.2756 310.54187 Z M 352.634 317.142 C 352.634 296.294 368.801 279.394 388.744 279.394 C 398.321 279.394 407.506 283.371 414.278 290.45 C 421.05 297.529 424.854 307.13 424.854 317.142 C 424.854 337.989 408.687 354.89 388.744 354.89 C 368.801 354.89 352.634 337.989 352.634 317.142 Z M 535.53284 317.44357 C 535.53284 296.595914 551.812747 279.69552300000004 571.8950229999999 279.69552300000004 C 581.5388829999999 279.69552300000004 590.7877229999999 283.67254330000003 597.606998 290.75167500000003 C 604.426212 297.83080700000005 608.2572054999999 307.432156 608.2572054999999 317.44357 C 608.2572054999999 338.29122600000005 591.9772985 355.19158600000003 571.8950225 355.19158600000003 C 551.8127475 355.19158600000003 535.5328395 338.29122600000005 535.5328395 317.44357 L 535.53284 317.44357 Z M 384.95276 235.7769 C 384.95276 215.76419 400.414796 199.54068 419.48819000000003 199.54068 C 428.647553 199.54068 437.43176300000005 203.35841380000002 443.90841700000004 210.154022 C 450.38507100000004 216.9496305 454.02362100000005 226.166458 454.02362100000005 235.776901 C 454.02362100000005 255.789611 438.56158500000004 272.013121 419.48819100000003 272.013121 C 400.414796 272.013121 384.952761 255.789611 384.952761 235.776901 L 384.95276 235.7769 Z M 401.659 390.856 C 401.659 370.399 417.607 353.816 437.281 353.816 C 446.728 353.816 455.789 357.719 462.469 364.665 C 469.15 371.611 472.903 381.032 472.903 390.856 C 472.903 411.312 456.954 427.895 437.281 427.895 C 417.607 427.895 401.659 411.312 401.659 390.856 Z M 488.052 390.856 C 488.052 370.399 504.001 353.816 523.674 353.816 C 533.122 353.816 542.183 357.719 548.863 364.665 C 555.543 371.611 559.296 381.032 559.296 390.856 C 559.296 411.312 543.348 427.895 523.674 427.895 C 504.001 427.895 488.052 411.312 488.052 390.856 Z M 447.751 458.501 C 447.751 440.054 462.007 425.1 479.593 425.1 C 488.038 425.1 496.138 428.619 502.109 434.883 C 508.081 441.147 511.436 449.643 511.436 458.501 C 511.436 476.948 497.179 491.903 479.593 491.903 C 462.007 491.903 447.751 476.948 447.751 458.501 Z M 489.468 251.464 C 489.145 248.316 488.452 242.053 483.994 229.329 C 479.603 216.795 471.754 201.147 463.365 186.954 C 456.359 175.101 446.637 163.403 440.786 156.001 C 437.501 151.844 426.101 139.879 426.009 139.86 C 424.62 139.567 422.296 139.277 421.058 139.75 C 418.736 140.638 414.699 145.542 413.246 147.11 C 410.799 149.75 411.478 151.054 411.555 151.144 C 414.844 154.985 423.486 164.849 427.874 170.249 C 432.52 175.968 434.869 178.92 439 184.874 C 443.131 190.829 448.813 199.378 452.661 205.976 C 456.51 212.574 459.447 218.455 462.092 224.462 C 464.737 230.469 467.039 237.456 468.533 242.016 C 469.861 246.07 470.489 249.827 470.907 251.659 C 470.96 251.888 489.582 252.449 489.467 251.434 M 578.239 252.662 C 577.544 253.307 570.907 261.85 551.444 267.727 C 537.565 271.917 523.62 265.83 517.32 261.731 C 510.839 257.514 504.49 249.433 503.986 241.76 C 503.457 233.697 506.458 227.308 507.885 224.067 C 510.087 219.064 517.202 211.876 528.113 206.473 C 540.879 200.151 547.92 198.45 559.959 194.024 C 566.298 191.694 580.846 186.832 581.087 186.637 C 582.48 185.506 573.401 186.701 562.741 188.555 C 549.881 190.792 530.308 196.641 518.916 201.561 C 501.411 209.121 494.519 219.113 494.458 218.904 C 493.417 215.309 489.695 200.127 489.789 189.064 C 489.845 182.505 491.391 175.687 494.519 169.915 C 498.959 161.72 502.541 157.671 507.181 153.381 C 510.363 150.439 515.878 147.063 521.487 144.536 C 526.709 142.182 531.703 141.043 532.312 140.935 C 534.61 140.528 541.493 139.326 541.172 140.014 C 540.709 141.005 539.775 142.113 539.306 143.47 C 538.783 144.982 538.696 146.56 539.883 147.589 C 541.759 149.214 547.872 147.071 549.811 146.451 C 555.168 144.738 567.061 142.049 576.428 141.52 C 583.764 141.106 587.643 141.712 587.637 141.751 C 587.58 142.143 586.836 143.021 586.406 143.905 C 585.128 146.531 585.216 150.367 588.388 151.004 C 592.539 151.838 596.735 150.81 599.304 150.555 C 601.874 150.301 604.908 150.162 607.848 150.416 C 610.788 150.671 613.947 151.33 616.945 152.083 C 619.943 152.835 622.582 153.692 625.835 154.931 C 629.087 156.169 634.029 158.194 636.459 159.513 C 638.89 160.833 640.499 160.914 640.417 162.847 C 640.336 164.779 639.663 164.338 635.971 171.109 C 632.279 177.88 622.802 195.624 618.265 203.471 C 613.728 211.319 612.698 213.297 608.751 218.193 C 607.077 220.27 592.715 231.362 593.886 232.165 C 594.344 232.479 595.047 233.075 595.283 233.499 C 595.66 234.177 594.504 234.671 593.201 235.639 C 591.35 237.015 581.316 242.475 576.988 245.523 C 575.765 246.384 575.189 247.039 575.191 247.699 C 575.194 248.851 576.831 249.441 578.31 249.967 C 579.262 250.306 580.198 250.353 579.898 250.682 C 579.575 251.036 578.658 252.264 578.225 252.67" fill-rule="evenodd" style="stroke: rgb(255, 255, 255); fill: url('#gradient-2-1');" clip-path="url(#p.0)" transform="matrix(1, 0, 0, 1, 7.105427357601002e-15, 0)"/>
</svg>