<?xml version="1.0" encoding="utf-8"?>
<svg viewBox="0 0 800 800" fill="none" stroke="none" stroke-linecap="square" stroke-miterlimit="10" xmlns="http://www.w3.org/2000/svg" xmlns:xlink="http://www.w3.org/1999/xlink" xmlns:bx="https://boxy-svg.com">
  <defs>
    <linearGradient gradientUnits="userSpaceOnUse" x1="508.23" y1="101.466" x2="508.23" y2="299.648" id="gradient-3" gradientTransform="matrix(0.977909, 0, 0, 1, 34.362942, -4.466157)">
      <stop offset="0" style="stop-color: rgb(18.431% 65.098% 52.941%)"/>
      <stop offset="1" style="stop-color: rgb(0% 39.725% 29.439%)"/>
    </linearGradient>
    <linearGradient id="gradient-0-1" gradientUnits="userSpaceOnUse" x1="352.934" y1="100" x2="352.934" y2="272.419" gradientTransform="matrix(0.977909, 0, 0, 1, 11.773847, -0.000047)" xlink:href="#gradient-0"/>
    <linearGradient id="gradient-0">
      <stop offset="0" style="stop-color: rgb(47, 166, 135);"/>
      <stop offset="1" style="stop-color: rgb(11, 121, 90);"/>
    </linearGradient>
    <linearGradient id="gradient-1-0" gradientUnits="userSpaceOnUse" x1="399.158" y1="293.007" x2="399.158" y2="431.18" gradientTransform="matrix(1, 0, 0, 1, 0.854469, -0.000047)" xlink:href="#gradient-1"/>
    <linearGradient id="gradient-1">
      <stop offset="0" style="stop-color: rgb(179, 68, 170);"/>
      <stop offset="1" style="stop-color: rgb(90, 11, 121);"/>
    </linearGradient>
    <linearGradient id="gradient-1-7" gradientUnits="userSpaceOnUse" x1="374.133" y1="293" x2="374.133" y2="431.173" gradientTransform="matrix(1, 0, 0, 1, 25.854492, 0)" xlink:href="#gradient-1"/>
    <radialGradient id="gradient-4-0" gradientUnits="userSpaceOnUse" cx="399.943" cy="361.984" r="49.674" xlink:href="#gradient-4"/>
    <linearGradient id="gradient-4" bx:pinned="true">
      <stop offset="0" style="stop-color: rgb(179, 68, 170);"/>
      <stop offset="0.62" style="stop-color: rgb(90, 11, 121);"/>
      <stop offset="1" style="stop-color: rgb(67, 67, 67);"/>
    </linearGradient>
    <linearGradient id="gradient-1-1" gradientUnits="userSpaceOnUse" x1="398.522" y1="537.635" x2="398.522" y2="640" gradientTransform="matrix(1.004208, 0, 0, 0.976894, -0.198884, 14.78778)" xlink:href="#gradient-1"/>
    <linearGradient id="gradient-1-2" gradientUnits="userSpaceOnUse" x1="467.447" y1="428.404" x2="467.447" y2="541.918" gradientTransform="matrix(1, 0, 0, 1, -0.499359, -0.000047)" xlink:href="#gradient-1"/>
    <linearGradient id="gradient-1-3" gradientUnits="userSpaceOnUse" x1="332.36" y1="428.404" x2="332.36" y2="541.918" gradientTransform="matrix(1, 0, 0, 1, -0.499359, -0.000047)" xlink:href="#gradient-1"/>
    <linearGradient id="gradient-1-6" gradientUnits="userSpaceOnUse" x1="256.464" y1="314.365" x2="256.464" y2="430.05" gradientTransform="matrix(1.018357, 0, 0, 0.994079, -3.671589, 2.49616)" xlink:href="#gradient-1"/>
    <linearGradient id="gradient-1-5" gradientUnits="userSpaceOnUse" x1="256.464" y1="314.365" x2="256.464" y2="430.05" gradientTransform="matrix(1.018357, 0, 0, 0.994079, 284.036682, 2.496857)" xlink:href="#gradient-1"/>
    <linearGradient id="gradient-1-4" gradientUnits="userSpaceOnUse" x1="332.36" y1="428.404" x2="332.36" y2="541.918" gradientTransform="matrix(1, 0, 0, 1, -0.499359, -0.000047)" xlink:href="#gradient-1"/>
    <linearGradient id="gradient-0-2" gradientUnits="userSpaceOnUse" x1="352.934" y1="100" x2="352.934" y2="272.419" gradientTransform="matrix(0.876102, 0, 0, 0.895893, 47.70484, 19.38539)" xlink:href="#gradient-0"/>
  </defs>
  <clipPath id="p.0">
    <path d="M -22545.909 -7865.239 L 30511.839 -7865.239 L 30511.839 24508.114 L -22545.909 24508.114 L -22545.909 -7865.239 Z" clip-rule="nonzero"/>
  </clipPath>
  <clipPath id="clip-2">
    <path d="M -23000.974 -8162.833 L 30645.969 -8162.833 L 30645.969 25373.265 L -23000.974 25373.265 L -23000.974 -8162.833 Z" clip-rule="nonzero" style="fill: rgb(0, 0, 0);"/>
  </clipPath>
  <clipPath id="clip-8">
    <path d="M -273.979 -65.233 L 1073.875 -65.233 L 1073.875 925.391 L -273.979 925.391 L -273.979 -65.233 Z" clip-rule="nonzero"/>
  </clipPath>
  <clipPath id="clip-1">
    <path d="M -133.181 23.996 L 933.067 23.996 L 933.067 807.627 L -133.181 807.627 L -133.181 23.996 Z" clip-rule="nonzero"/>
    <path stroke-width="1.0" stroke-linejoin="round" stroke-linecap="butt" d="M 548.155 276.261 C 546.976 277.25 541.86 285.019 512.099 294.026 C 490.876 300.445 471.773 292.069 462.141 285.786 C 452.231 279.326 444.479 269.928 443.709 258.171 C 442.899 245.813 447.561 237.096 449.867 232.185 C 453.283 224.91 462.157 215.316 478.841 207.035 C 498.361 197.348 508.557 194.133 526.962 187.349 C 536.658 183.782 558.643 176.711 563.036 173.057 C 567.658 169.213 546.479 171.175 530.178 174.015 C 510.514 177.443 479.558 183.551 462.14 191.09 C 435.372 202.676 427.7 214.975 427.606 214.655 C 426.016 209.149 423.256 196.049 423.369 179.099 C 423.454 166.36 425.386 158.47 430.168 149.626 C 436.955 137.07 440.735 133.292 447.828 126.718 C 452.695 122.212 459.674 117.039 468.25 113.164 C 476.236 109.559 482.555 107.405 483.487 107.239 C 487.001 106.615 491.889 104.832 491.187 105.758 C 490.137 107.143 489.423 109.52 489.488 111.531 C 489.568 113.981 491.129 116.522 493.092 117.912 C 494.513 118.918 497.46 119.345 500.713 119.105 C 504.735 118.807 509.226 117.615 511.887 116.734 C 520.054 114.03 536.532 109.163 550.853 108.354 C 562.073 107.721 563.124 107.822 563.115 107.882 C 563.028 108.482 562.545 109.061 561.889 110.418 C 559.931 114.441 562.351 120.789 567.2 121.764 C 573.547 123.045 581.642 121.668 585.571 121.275 C 589.501 120.887 594.544 121.112 599.04 121.5 C 603.535 121.894 607.333 122.753 611.918 123.908 C 616.502 125.06 620.327 126.678 625.3 128.577 C 630.273 130.474 634.84 132.473 638.555 134.493 C 642.272 136.516 644.722 136.79 644.685 138.452 C 644.648 140.114 643.038 139.631 637.393 150.007 C 631.747 160.382 616.367 187.679 610.418 198.03 C 604.469 208.381 603.629 207.734 595.989 217.954 C 590.575 225.197 568.361 241.615 571.014 243.503 C 572.396 244.486 573.693 245.331 574.086 245.963 C 574.337 246.366 568.41 249.248 566.225 250.576 C 563.209 252.408 553.567 256.546 548.512 260.399 C 547.081 261.49 543.762 265.919 543.766 266.959 C 543.771 268.326 546.007 271.209 548.269 272.016 C 549.725 272.536 551.69 272.912 551.62 273.02 C 551.306 273.503 548.779 275.665 548.118 276.288" fill-rule="evenodd" style="stroke: rgb(218, 218, 218);" clip-path="url(#clip-13)"/>
  </clipPath>
  <clipPath id="clip-13">
    <path d="M -20161.623 -7027.044 L 27372.576 -7027.044 L 27372.576 21976.087 L -20161.623 21976.087 L -20161.623 -7027.044 Z" clip-rule="nonzero"/>
  </clipPath>
  <clipPath id="clip-3">
    <path d="M -21611.032 -7326.775 L 28823.663 -7326.775 L 28823.663 22924.224 L -21611.032 22924.224 L -21611.032 -7326.775 Z" clip-rule="nonzero"/>
  </clipPath>
  <clipPath id="clip-11">
    <path d="M -23261.825 -8061.805 L 31987.789 -8061.805 L 31987.789 25077.174 L -23261.825 25077.174 L -23261.825 -8061.805 Z" clip-rule="nonzero"/>
  </clipPath>
  <clipPath id="clip-12">
    <path d="M -21328.252 -7328.682 L 29118.948 -7328.682 L 29118.948 22929.81 L -21328.252 22929.81 L -21328.252 -7328.682 Z" clip-rule="nonzero"/>
  </clipPath>
  <clipPath id="clip-7">
    <path d="M -23593.444 -7860.346 L 31888.645 -7860.346 L 31888.645 24513.007 L -23593.444 24513.007 L -23593.444 -7860.346 Z" clip-rule="nonzero"/>
  </clipPath>
  <clipPath id="clip-10">
    <path d="M -22597.496 -7845.833 L 30460.242 -7845.833 L 30460.242 24527.523 L -22597.496 24527.523 L -22597.496 -7845.833 Z" clip-rule="nonzero"/>
  </clipPath>
  <rect width="800" height="800" style="stroke: rgb(0, 0, 0); fill: rgb(255, 249, 237);" transform="matrix(1, 0, 0, 1, 2.842170943040401e-14, 0)"/>
  <path stroke-width="1.0" stroke-linejoin="round" stroke-linecap="butt" d="M 551.453 269.936 C 550.39 270.925 540.24 284.014 510.479 293.021 C 489.256 299.44 467.932 290.115 458.3 283.832 C 448.39 277.372 438.68 264.988 437.91 253.231 C 437.1 240.873 441.689 231.086 443.872 226.119 C 447.239 218.452 458.12 207.439 474.804 199.158 C 494.324 189.471 505.092 186.866 523.497 180.082 C 533.193 176.515 555.437 169.063 555.806 168.762 C 557.935 167.03 544.054 168.861 527.753 171.701 C 508.089 175.129 478.158 184.092 460.74 191.631 C 433.972 203.217 423.434 218.526 423.34 218.206 C 421.75 212.7 416.055 189.433 416.201 172.483 C 416.286 162.432 418.652 151.983 423.434 143.139 C 430.221 130.583 435.701 124.377 442.794 117.803 C 447.661 113.297 456.094 108.124 464.67 104.249 C 472.656 100.644 480.291 98.898 481.223 98.732 C 484.737 98.108 495.262 96.265 494.773 97.319 C 494.063 98.84 492.635 100.537 491.918 102.616 C 491.118 104.933 490.985 107.351 492.801 108.929 C 495.67 111.418 505.017 108.134 507.981 107.183 C 516.174 104.56 534.36 100.438 548.681 99.629 C 559.901 98.996 565.83 99.923 565.821 99.983 C 565.734 100.583 564.598 101.927 563.942 103.284 C 561.984 107.307 562.121 113.184 566.97 114.159 C 573.317 115.44 579.733 113.865 583.662 113.472 C 587.592 113.084 592.232 112.871 596.728 113.259 C 601.223 113.653 606.052 114.659 610.637 115.814 C 615.221 116.966 619.258 118.28 624.231 120.179 C 629.204 122.076 636.763 125.179 640.478 127.199 C 644.195 129.222 646.654 129.346 646.529 132.307 C 646.405 135.268 645.375 134.593 639.73 144.969 C 634.084 155.344 619.593 182.533 612.657 194.56 C 605.718 206.586 604.145 209.614 598.109 217.117 C 595.548 220.3 573.588 237.296 575.378 238.526 C 576.079 239.01 577.153 239.921 577.514 240.572 C 578.09 241.611 576.321 242.367 574.33 243.85 C 571.501 245.96 556.155 254.325 549.539 258.997 C 547.669 260.316 546.789 261.318 546.792 262.33 C 546.797 264.095 549.297 264.999 551.559 265.806 C 553.015 266.326 554.446 266.397 553.988 266.901 C 553.496 267.444 552.091 269.326 551.43 269.949" fill-rule="evenodd" style="fill: url('#gradient-3');" clip-path="url(#p.0)" transform="matrix(1, 0, 0, 1, 2.842170943040401e-14, 0)"/>
  <path stroke-width="1.0" stroke-linejoin="round" stroke-linecap="butt" d="M 416.59 271.565 C 416.097 266.741 415.038 257.144 408.219 237.648 C 401.505 218.442 389.503 194.463 376.676 172.714 C 365.964 154.552 351.21 136.719 342.262 125.38 C 337.239 119.009 323.272 102.805 319.668 100.7 C 317.454 99.407 313.877 99.659 311.983 100.384 C 308.435 101.743 302.261 109.257 300.039 111.661 C 296.296 115.706 297.333 117.705 297.454 117.841 C 302.482 123.727 315.696 138.842 322.406 147.117 C 329.511 155.881 333.102 160.406 339.42 169.528 C 345.735 178.654 354.426 191.752 360.31 201.864 C 366.195 211.975 370.686 220.985 374.731 230.189 C 378.775 239.395 382.295 250.1 384.579 257.088 C 386.61 263.299 387.57 269.056 388.209 271.863 C 388.291 272.215 416.764 273.074 416.589 271.52" fill-rule="evenodd" style="fill: url('#gradient-0-1');" clip-path="url(#p.0)" transform="matrix(1, 0, 0, 1, 2.842170943040401e-14, 0)"/>
  <g transform="matrix(0.978671, 0, 0, 1.013171, 9.027076, -1.837304)" style="">
    <path stroke-width="1.0" stroke-linejoin="round" stroke-linecap="butt" d="M 330.078 362.092 C 330.078 323.938 361.388 293.007 400.01 293.007 C 418.558 293.007 436.347 300.284 449.461 313.239 C 462.577 326.197 469.945 343.768 469.945 362.092 C 469.945 400.25 438.635 431.18 400.01 431.18 C 361.388 431.18 330.078 400.25 330.078 362.092 Z" fill-rule="evenodd" style="fill: url('#gradient-1-0');" clip-path="url(#p.0)"/>
    <path stroke-linejoin="round" stroke-linecap="butt" d="M 330.054 362.085 C 330.054 323.931 361.364 293 399.986 293 C 418.534 293 436.323 300.277 449.437 313.232 C 462.553 326.19 469.921 343.761 469.921 362.085 C 469.921 400.243 438.611 431.173 399.986 431.173 C 361.364 431.173 330.054 400.243 330.054 362.085 Z" fill-rule="evenodd" style="fill: url('#gradient-1-7');" clip-path="url(#clip-2)" stroke-width="1.0"/>
    <path stroke-linejoin="round" stroke-linecap="butt" d="M 337.154 362.033 C 337.154 327.773 365.266 300 399.948 300 C 416.603 300 432.573 306.537 444.35 318.169 C 456.125 329.804 462.741 345.582 462.741 362.033 C 462.741 396.296 434.629 424.066 399.948 424.066 C 365.266 424.066 337.154 396.296 337.154 362.033 Z" fill-rule="evenodd" style="stroke: rgb(255, 255, 255); fill: rgb(0, 0, 0); stroke-width: 1.50614px;" clip-path="url(#clip-8)"/>
    <path stroke-linejoin="round" stroke-linecap="butt" d="M 350.269 361.984 C 350.269 334.883 372.508 312.913 399.944 312.913 C 413.121 312.913 425.751 318.083 435.069 327.285 C 444.384 336.489 449.617 348.97 449.617 361.984 C 449.617 389.089 427.379 411.055 399.944 411.055 C 372.508 411.055 350.269 389.089 350.269 361.984 Z" fill-rule="evenodd" style="stroke-width: 1.5px; fill: url('#gradient-4-0');" clip-path="url(#clip-1)"/>
    <ellipse style="fill: rgb(255, 255, 255);" cx="417.139" cy="335.06" rx="3.821" ry="3.745"/>
    <ellipse style="fill: rgb(255, 255, 255);" cx="424.729" cy="342.153" rx="7.835" ry="7.678"/>
  </g>
  <g style="" transform="matrix(0.977909028530121, 0, 0, 1, 9.331365585327177, 0)">
    <g>
      <path stroke-width="1.0" stroke-linejoin="round" stroke-linecap="butt" d="M 350 589.998 C 350 562.384 372.384 540 399.999 540 C 413.259 540 425.977 545.267 435.355 554.644 C 444.732 564.019 450 576.74 450 589.998 C 450 617.613 427.613 640 399.999 640 C 372.384 640 350 617.613 350 589.998 Z" fill-rule="evenodd" style="fill: url('#gradient-1-1');" clip-path="url(#p.0)"/>
      <clipPath id="clip-6">
        <path d="M -21184.026 -7011.763 L 28726.56 -7011.763 L 28726.56 22110.663 L -21184.026 22110.663 L -21184.026 -7011.763 Z" clip-rule="nonzero"/>
      </clipPath>
      <path stroke-linejoin="round" stroke-linecap="butt" d="M 355.021 589.998 C 355.021 565.157 375.157 545.021 399.999 545.021 C 411.927 545.021 423.368 549.759 431.805 558.194 C 440.241 566.628 444.979 578.072 444.979 589.998 C 444.979 614.84 424.84 634.979 399.999 634.979 C 375.157 634.979 355.021 614.84 355.021 589.998 Z" fill-rule="evenodd" style="stroke: rgb(255, 255, 255); stroke-width: 1.51675px;" clip-path="url(#clip-6)"/>
    </g>
  </g>
  <g transform="matrix(0.9655930399894715, 0, 0, 0.9690430164337159, 15.664007186889677, 14.85810375213623)" style="">
    <path stroke-width="1.0" stroke-linejoin="round" stroke-linecap="butt" d="M 411.247 485.162 C 411.247 453.815 436.187 428.404 466.948 428.404 C 481.724 428.404 495.892 434.385 506.337 445.028 C 516.781 455.671 522.65 470.108 522.65 485.162 C 522.65 516.506 497.714 541.918 466.948 541.918 C 436.187 541.918 411.247 516.506 411.247 485.162 Z" fill-rule="evenodd" style="fill: url('#gradient-1-2');" clip-path="url(#p.0)"/>
    <clipPath id="clip-5">
      <path d="M -21315.69 -7284.378 L 28912.013 -7284.378 L 28912.013 22841.8 L -21315.69 22841.8 L -21315.69 -7284.378 Z" clip-rule="nonzero"/>
    </clipPath>
    <path stroke-linejoin="round" stroke-linecap="butt" d="M 416.266 485.162 C 416.266 456.665 438.939 433.564 466.904 433.564 C 480.337 433.564 493.218 439 502.713 448.676 C 512.208 458.351 517.543 471.477 517.543 485.162 C 517.543 513.657 494.874 536.758 466.904 536.758 C 438.939 536.758 416.266 513.657 416.266 485.162 Z" fill-rule="evenodd" style="stroke: rgb(255, 255, 255); stroke-width: 1.55068px;" clip-path="url(#clip-5)"/>
  </g>
  <g transform="matrix(0.9656020402908326, 0, 0, 0.9690430164337159, 13.997887611389189, 14.85810375213623)" style="">
    <path stroke-width="1.0" stroke-linejoin="round" stroke-linecap="butt" d="M 276.16 485.162 C 276.16 453.815 301.097 428.404 331.859 428.404 C 346.633 428.404 360.802 434.385 371.246 445.028 C 381.694 455.671 387.562 470.108 387.562 485.162 C 387.562 516.506 362.624 541.918 331.859 541.918 C 301.097 541.918 276.16 516.506 276.16 485.162 Z" fill-rule="evenodd" style="fill: url('#gradient-1-3');" clip-path="url(#p.0)"/>
    <clipPath id="clip-4">
      <path d="M -21328.284 -7284.677 L 28900.355 -7284.677 L 28900.355 22842.665 L -21328.284 22842.665 L -21328.284 -7284.677 Z" clip-rule="nonzero"/>
    </clipPath>
    <path stroke-linejoin="round" stroke-linecap="butt" d="M 281.266 485.162 C 281.266 456.664 303.937 433.562 331.903 433.562 C 345.335 433.562 358.216 438.999 367.711 448.675 C 377.209 458.351 382.544 471.476 382.544 485.162 C 382.544 513.657 359.873 536.76 331.903 536.76 C 303.937 536.76 281.266 513.657 281.266 485.162 Z" fill-rule="evenodd" style="stroke: rgb(255, 255, 255); stroke-width: 1.55067px;" clip-path="url(#clip-4)"/>
  </g>
  <g transform="matrix(0.977909, 0, 0, 1, 9.331246, -2)" style="">
    <g>
      <g transform="matrix(1.043478, 0, 0, 1.043478, -17.391205, -16.695606)">
        <path stroke-width="1.0" stroke-linejoin="round" stroke-linecap="butt" d="M 200 372.499 C 200 340.741 225.744 315 257.5 315 C 272.748 315 287.375 321.057 298.159 331.841 C 308.942 342.623 315 357.246 315 372.499 C 315 404.255 289.258 430 257.5 430 C 225.744 430 200 404.255 200 372.499 Z" fill-rule="evenodd" style="fill: url('#gradient-1-6');" clip-path="url(#p.0)"/>
        <path stroke-linejoin="round" stroke-linecap="butt" d="M 204.512 372.499 C 204.512 343.507 228.011 320.011 257.001 320.011 C 270.919 320.011 284.272 325.539 294.115 335.386 C 303.961 345.227 309.49 358.576 309.49 372.499 C 309.49 401.489 285.993 424.989 257.001 424.989 C 228.011 424.989 204.512 401.489 204.512 372.499 Z" fill-rule="evenodd" style="stroke: rgb(255, 255, 255); stroke-width: 1.45356px;" clip-path="url(#clip-3)"/>
      </g>
    </g>
  </g>
  <g transform="matrix(1.020426, 0, 0, 1.043478, -8.149273, -18.695585)" style="">
    <g transform="matrix(1, 0, 0, 1, -2.708008, 0)">
      <path stroke-width="1.0" stroke-linejoin="round" stroke-linecap="butt" d="M 487.708 372.499 C 487.708 340.741 513.452 315 545.208 315 C 560.456 315 575.083 321.057 585.867 331.841 C 596.65 342.623 602.708 357.246 602.708 372.499 C 602.708 404.255 576.966 430 545.208 430 C 513.452 430 487.708 404.255 487.708 372.499 Z" fill-rule="evenodd" style="fill: url('#gradient-1-5');" clip-path="url(#clip-11)"/>
      <path stroke-linejoin="round" stroke-linecap="butt" d="M 492.701 372.499 C 492.701 343.5 516.206 319.998 545.203 319.998 C 559.124 319.998 572.48 325.528 582.326 335.377 C 592.174 345.221 597.705 358.573 597.705 372.499 C 597.705 401.496 574.202 425.002 545.203 425.002 C 516.206 425.002 492.701 401.496 492.701 372.499 Z" fill-rule="evenodd" style="stroke: rgb(255, 255, 255); stroke-width: 1.45356px;" clip-path="url(#clip-12)"/>
    </g>
  </g>
  <g transform="matrix(0.9217100143432618, 0, 0, 0.9249950051307679, -0.731069028377533, -206.27154541015625)" style="">
    <path stroke-width="1.0" stroke-linejoin="round" stroke-linecap="butt" d="M 276.16 485.162 C 276.16 453.815 301.097 428.404 331.859 428.404 C 346.633 428.404 360.802 434.385 371.246 445.028 C 381.694 455.671 387.562 470.108 387.562 485.162 C 387.562 516.506 362.624 541.918 331.859 541.918 C 301.097 541.918 276.16 516.506 276.16 485.162 Z" fill-rule="evenodd" style="fill: url('#gradient-1-4');" clip-path="url(#clip-7)"/>
    <clipPath id="clip-9">
      <path d="M -21328.284 -7284.677 L 28900.355 -7284.677 L 28900.355 22842.665 L -21328.284 22842.665 L -21328.284 -7284.677 Z" clip-rule="nonzero"/>
    </clipPath>
    <path stroke-linejoin="round" stroke-linecap="butt" d="M 281.266 485.162 C 281.266 456.664 303.937 433.562 331.903 433.562 C 345.335 433.562 358.216 438.999 367.711 448.675 C 377.209 458.351 382.544 471.476 382.544 485.162 C 382.544 513.657 359.873 536.76 331.903 536.76 C 303.937 536.76 281.266 513.657 281.266 485.162 Z" fill-rule="evenodd" style="stroke: rgb(255, 255, 255); stroke-width: 1.62451px;" clip-path="url(#clip-9)"/>
  </g>
  <path stroke-linejoin="round" stroke-linecap="butt" d="M 538.279 275.543 C 537.106 276.511 524.156 285.417 507.759 288.822 C 486.05 293.33 469.689 285.898 460.057 279.615 C 450.147 273.155 443.244 264.488 442.474 252.731 C 441.664 240.373 446.396 231.556 449.123 226.524 C 453.338 218.745 460.708 211.251 477.392 202.97 C 496.912 193.283 506.801 190.902 525.206 184.118 C 533.431 181.092 548.547 176.028 556.359 172.355 C 564.675 168.446 563.024 166.683 562.681 165.984 C 561.805 164.199 546.082 164.239 529.781 167.079 C 510.117 170.507 476.798 178.393 459.38 185.932 C 432.612 197.518 425.917 208.035 425.841 207.775 C 424.148 202.022 421.537 186.135 421.544 173.668 C 421.55 163.138 423.945 153.811 428.727 144.967 C 435.514 132.411 442.032 126.371 445.919 122.287 C 449.061 118.986 460.005 111.983 466.411 108.7 C 474.209 104.704 477.475 104.198 479.911 103.394 C 483.3 102.275 488.425 101.107 488.252 101.356 C 487.245 102.805 486.489 104.473 486.554 106.484 C 486.634 108.934 487.869 111.353 489.832 112.743 C 491.253 113.749 494.608 114.379 497.861 114.139 C 501.883 113.841 507.288 112.451 509.949 111.57 C 518.116 108.866 533.993 105.121 548.267 103.706 C 558.341 102.708 559.441 103.101 559.403 103.154 C 558.209 104.814 557.999 105.875 557.779 106.77 C 557.459 108.07 557.577 111.017 558.81 113.876 C 559.797 116.165 561.778 117.69 563.934 118.124 C 570.281 119.405 578.545 118.059 582.474 117.666 C 586.404 117.278 591.487 116.526 595.983 116.914 C 600.478 117.308 604.107 117.709 608.692 118.864 C 613.276 120.016 617.061 121.52 622.034 123.419 C 627.007 125.316 631.743 126.977 635.458 128.997 C 639.175 131.02 641.625 131.294 641.588 132.956 C 641.551 134.618 639.941 134.135 634.296 144.511 C 628.65 154.886 613.27 182.183 607.321 192.534 C 601.372 202.885 601.713 203.251 594.073 213.471 C 588.659 220.714 564.44 236.709 567.093 238.597 C 568.475 239.58 569.776 240.069 570.462 240.584 C 570.842 240.869 565.313 243.752 563.128 245.08 C 560.112 246.912 550.728 251.308 545.673 255.161 C 544.242 256.252 540.972 258.79 540.592 261.617 C 540.529 262.087 540.422 265.198 544.017 266.896 C 545.373 267.537 547.638 268.456 547.585 268.495 C 547.023 268.904 539.559 274.581 538.147 275.642" fill-rule="evenodd" style="stroke: rgb(255, 255, 255); stroke-width: 1.5px;" clip-path="url(#clip-10)" transform="matrix(1, 0, 0, 1, 2.842170943040401e-14, 0)"/>
  <path stroke-width="1.0" stroke-linejoin="round" stroke-linecap="butt" d="M 411.146 266.37 C 410.704 262.048 407.449 250.374 401.339 232.908 C 395.324 215.701 384.418 194.373 372.926 174.888 C 363.33 158.617 350.181 142.959 342.165 132.8 C 337.665 127.093 319.592 106.853 319.436 106.687 C 319.076 106.304 316.32 104.864 314.623 105.514 C 311.445 106.732 304.33 113.558 302.93 115.579 C 301.21 118.061 301.56 117.37 307.357 123.377 C 312.173 128.367 324.553 142.719 330.564 150.133 C 336.93 157.984 338.965 161.554 344.625 169.727 C 350.282 177.903 359.299 191.175 364.57 200.234 C 369.842 209.293 374.174 217.057 377.798 225.302 C 381.421 233.55 385.342 245.294 387.389 251.554 C 389.208 257.118 390.991 263.814 391.564 266.329 C 391.637 266.644 411.302 267.107 411.145 265.715" fill-rule="evenodd" style="fill: url('#gradient-0-2'); stroke: rgb(255, 255, 255);" clip-path="url(#clip-13)" transform="matrix(1, 0, 0, 1, 2.842170943040401e-14, 0)"/>
</svg>