<?xml version="1.0" encoding="utf-8"?>
<svg viewBox="0 0 800 800" fill="none" stroke="none" stroke-linecap="square" stroke-miterlimit="10" xmlns="http://www.w3.org/2000/svg" xmlns:xlink="http://www.w3.org/1999/xlink">
  <defs>
    <linearGradient gradientUnits="userSpaceOnUse" x1="508.23" y1="101.466" x2="508.23" y2="299.648" id="gradient-3">
      <stop offset="0" style="stop-color: rgb(18.431% 65.098% 52.941%)"/>
      <stop offset="1" style="stop-color: rgb(0% 39.725% 29.439%)"/>
    </linearGradient>
    <linearGradient id="gradient-0-1" gradientUnits="userSpaceOnUse" x1="352.934" y1="100" x2="352.934" y2="272.419" gradientTransform="matrix(1, 0, 0, 1, -25.000023, -0.000047)" xlink:href="#gradient-0"/>
    <linearGradient id="gradient-0">
      <stop offset="0" style="stop-color: rgb(47, 166, 135);"/>
      <stop offset="1" style="stop-color: rgb(11, 121, 90);"/>
    </linearGradient>
    <linearGradient id="gradient-1-0" gradientUnits="userSpaceOnUse" x1="399.158" y1="293.007" x2="399.158" y2="431.18" gradientTransform="matrix(1, 0, 0, 1, -25.000023, -0.000047)" xlink:href="#gradient-1"/>
    <linearGradient id="gradient-1">
      <stop offset="0" style="stop-color: rgb(179, 68, 170);"/>
      <stop offset="1" style="stop-color: rgb(90, 11, 121);"/>
    </linearGradient>
    <linearGradient id="gradient-1-1" gradientUnits="userSpaceOnUse" x1="398.522" y1="537.635" x2="398.522" y2="640" gradientTransform="matrix(1, 0, 0, 1, -25.000023, -0.000047)" xlink:href="#gradient-1"/>
    <linearGradient id="gradient-1-2" gradientUnits="userSpaceOnUse" x1="467.447" y1="428.404" x2="467.447" y2="541.918" gradientTransform="matrix(1, 0, 0, 1, -25.000023, -0.000047)" xlink:href="#gradient-1"/>
    <linearGradient id="gradient-1-3" gradientUnits="userSpaceOnUse" x1="332.36" y1="428.404" x2="332.36" y2="541.918" gradientTransform="matrix(1, 0, 0, 1, -25.000023, -0.000047)" xlink:href="#gradient-1"/>
    <linearGradient id="gradient-1-4" gradientUnits="userSpaceOnUse" x1="304.536" y1="192.004" x2="304.536" y2="303.053" gradientTransform="matrix(1, 0, 0, 1, -25.000023, -0.000047)" xlink:href="#gradient-1"/>
    <linearGradient id="gradient-1-5" gradientUnits="userSpaceOnUse" x1="542.85" y1="314.824" x2="542.85" y2="430.513" gradientTransform="matrix(1, 0, 0, 1, -25.000023, -0.000047)" xlink:href="#gradient-1"/>
    <linearGradient id="gradient-1-6" gradientUnits="userSpaceOnUse" x1="256.464" y1="314.365" x2="256.464" y2="430.05" gradientTransform="matrix(1, 0, 0, 1, -25.000023, -0.000047)" xlink:href="#gradient-1"/>
    <linearGradient id="gradient-1-8" gradientUnits="userSpaceOnUse" x1="374.133" y1="293" x2="374.133" y2="431.173" xlink:href="#gradient-1"/>
    <linearGradient gradientUnits="userSpaceOnUse" x1="374.089" y1="312.869" x2="374.089" y2="411.099" id="gradient-1-7" gradientTransform="matrix(1.085606, 0, 0, 1.085606, -32.024381, -30.988117)" xlink:href="#gradient-1"/>
  </defs>
  <clipPath id="p.0">
    <path d="M -23026.804 -8162.826 L 30620.139 -8162.826 L 30620.139 25373.272 L -23026.804 25373.272 L -23026.804 -8162.826 Z" clip-rule="nonzero"/>
  </clipPath>
  <clipPath id="clip-2">
    <path d="M -23026.822 -8162.833 L 30620.108 -8162.833 L 30620.108 25373.265 L -23026.822 25373.265 L -23026.822 -8162.833 Z" clip-rule="nonzero" style="fill: rgb(0, 0, 0);"/>
  </clipPath>
  <clipPath id="clip-9">
    <path d="M -252.478 -50.166 L 1041.277 -50.166 L 1041.277 910.469 L -252.478 910.469 L -252.478 -50.166 Z" clip-rule="nonzero"/>
  </clipPath>
  <clipPath id="clip-3">
    <path d="M -291.636 -51.221 L 1001.505 -51.221 L 1001.505 908.967 L -291.636 908.967 L -291.636 -51.221 Z" clip-rule="nonzero"/>
  </clipPath>
  <clipPath id="clip-4">
    <path d="M -284.774 -39.192 L 1015.602 -39.192 L 1015.602 926.359 L -284.774 926.359 L -284.774 -39.192 Z" clip-rule="nonzero"/>
  </clipPath>
  <clipPath id="clip-5">
    <path d="M -270.06 -41.689 L 1036.635 -41.689 L 1036.635 928.624 L -270.06 928.624 L -270.06 -41.689 Z" clip-rule="nonzero"/>
  </clipPath>
  <clipPath id="clip-6">
    <path d="M -284.1 -34.034 L 1032.178 -34.034 L 1032.178 943.324 L -284.1 943.324 L -284.1 -34.034 Z" clip-rule="nonzero"/>
  </clipPath>
  <clipPath id="clip-10">
    <path d="M -342.967 -92.577 L 1091.155 -92.577 L 1091.155 961.445 L -342.967 961.445 L -342.967 -92.577 Z" clip-rule="nonzero"/>
  </clipPath>
  <clipPath id="clip-7">
    <path d="M -294.956 -72.406 L 1020.561 -72.406 L 1020.561 904.383 L -294.956 904.383 L -294.956 -72.406 Z" clip-rule="nonzero"/>
  </clipPath>
  <clipPath id="clip-8">
    <path d="M -274.022 -48.868 L 1022.209 -48.868 L 1022.209 903.813 L -274.022 903.813 L -274.022 -48.868 Z" clip-rule="nonzero"/>
  </clipPath>
  <clipPath id="clip-1">
    <path d="M -205.183 -5.277 L 953.362 -5.277 L 953.362 846.224 L -205.183 846.224 L -205.183 -5.277 Z" clip-rule="nonzero"/>
  </clipPath>
  <rect width="800" height="800" style="fill: rgb(255, 249, 237);"/>
  <path stroke-width="1.0" stroke-linejoin="round" stroke-linecap="butt" d="M 528.771 274.402 C 527.684 275.391 517.305 288.48 486.872 297.487 C 465.169 303.906 443.364 294.581 433.514 288.298 C 423.38 281.838 413.451 269.454 412.663 257.697 C 411.835 245.339 416.528 235.552 418.76 230.585 C 422.203 222.918 433.33 211.905 450.391 203.624 C 470.352 193.937 481.363 191.332 500.184 184.548 C 510.099 180.981 532.845 173.529 533.223 173.228 C 535.4 171.496 521.205 173.327 504.536 176.167 C 484.428 179.595 453.821 188.558 436.009 196.097 C 408.636 207.683 397.86 222.992 397.764 222.672 C 396.138 217.166 390.315 193.899 390.464 176.949 C 390.551 166.898 392.97 156.449 397.86 147.605 C 404.801 135.049 410.404 128.843 417.658 122.269 C 422.635 117.763 431.258 112.59 440.028 108.715 C 448.194 105.11 456.002 103.364 456.955 103.198 C 460.548 102.574 471.311 100.731 470.811 101.785 C 470.085 103.306 468.625 105.003 467.891 107.082 C 467.073 109.399 466.937 111.817 468.794 113.395 C 471.728 115.884 481.286 112.6 484.317 111.649 C 492.695 109.026 511.292 104.904 525.937 104.095 C 537.41 103.462 543.473 104.389 543.464 104.449 C 543.375 105.049 542.213 106.393 541.542 107.75 C 539.54 111.773 539.68 117.65 544.639 118.625 C 551.129 119.906 557.69 118.331 561.708 117.938 C 565.727 117.55 570.471 117.337 575.069 117.725 C 579.666 118.119 584.604 119.125 589.292 120.28 C 593.98 121.432 598.108 122.746 603.193 124.645 C 608.279 126.542 616.008 129.645 619.807 131.665 C 623.608 133.688 626.123 133.812 625.995 136.773 C 625.868 139.734 624.815 139.059 619.042 149.435 C 613.269 159.81 598.451 186.999 591.358 199.026 C 584.262 211.052 582.654 214.08 576.481 221.583 C 573.862 224.766 551.406 241.762 553.237 242.992 C 553.954 243.476 555.052 244.387 555.421 245.038 C 556.01 246.077 554.201 246.833 552.165 248.316 C 549.272 250.426 533.58 258.791 526.814 263.463 C 524.902 264.782 524.002 265.784 524.005 266.796 C 524.01 268.561 526.567 269.465 528.88 270.272 C 530.369 270.792 531.832 270.863 531.364 271.367 C 530.86 271.91 529.424 273.792 528.748 274.415" fill-rule="evenodd" style="fill: url('#gradient-3');" clip-path="url(#p.0)"/>
  <path stroke-width="1.0" stroke-linejoin="round" stroke-linecap="butt" d="M 388.961 271.565 C 388.457 266.741 387.374 257.144 380.401 237.648 C 373.535 218.442 361.262 194.463 348.145 172.714 C 337.191 154.552 321.989 136.626 312.839 125.287 C 307.703 118.916 289.878 100.579 289.735 100.551 C 287.561 100.104 283.927 99.659 281.991 100.384 C 278.362 101.743 272.049 109.257 269.777 111.661 C 265.949 115.706 267.01 117.705 267.133 117.841 C 272.275 123.727 285.788 138.842 292.649 147.117 C 299.915 155.881 303.587 160.406 310.047 169.528 C 316.505 178.654 325.392 191.752 331.409 201.864 C 337.427 211.975 342.02 220.985 346.156 230.189 C 350.291 239.395 353.891 250.1 356.227 257.088 C 358.303 263.299 359.285 269.056 359.939 271.863 C 360.022 272.215 389.139 273.074 388.96 271.52" fill-rule="evenodd" style="fill: url('#gradient-0-1');" clip-path="url(#p.0)"/>
  <path stroke-width="1.0" stroke-linejoin="round" stroke-linecap="butt" d="M 304.224 362.092 C 304.224 323.938 335.534 293.007 374.156 293.007 C 392.704 293.007 410.493 300.284 423.607 313.239 C 436.723 326.197 444.091 343.768 444.091 362.092 C 444.091 400.25 412.781 431.18 374.156 431.18 C 335.534 431.18 304.224 400.25 304.224 362.092 Z" fill-rule="evenodd" style="fill: url('#gradient-1-0');" clip-path="url(#p.0)"/>
  <path stroke-width="1.0" stroke-linejoin="round" stroke-linecap="butt" d="M 323.732 588.816 C 323.732 560.549 346.022 537.635 373.521 537.635 C 386.726 537.635 399.391 543.026 408.729 552.625 C 418.067 562.223 423.313 575.244 423.313 588.816 C 423.313 617.084 401.02 640 373.521 640 C 346.022 640 323.732 617.084 323.732 588.816 Z" fill-rule="evenodd" style="fill: url('#gradient-1-1');" clip-path="url(#p.0)"/>
  <path stroke-width="1.0" stroke-linejoin="round" stroke-linecap="butt" d="M 386.746 485.162 C 386.746 453.815 411.686 428.404 442.447 428.404 C 457.223 428.404 471.391 434.385 481.836 445.028 C 492.28 455.671 498.149 470.108 498.149 485.162 C 498.149 516.506 473.213 541.918 442.447 541.918 C 411.686 541.918 386.746 516.506 386.746 485.162 Z" fill-rule="evenodd" style="fill: url('#gradient-1-2');" clip-path="url(#p.0)"/>
  <path stroke-width="1.0" stroke-linejoin="round" stroke-linecap="butt" d="M 251.659 485.162 C 251.659 453.815 276.596 428.404 307.358 428.404 C 322.132 428.404 336.301 434.385 346.745 445.028 C 357.193 455.671 363.061 470.108 363.061 485.162 C 363.061 516.506 338.123 541.918 307.358 541.918 C 276.596 541.918 251.659 516.506 251.659 485.162 Z" fill-rule="evenodd" style="fill: url('#gradient-1-3');" clip-path="url(#p.0)"/>
  <path stroke-width="1.0" stroke-linejoin="round" stroke-linecap="butt" d="M 225.535 247.528 C 225.535 216.862 249.715 192.004 279.537 192.004 C 293.861 192.004 307.596 197.85 317.722 208.264 C 327.85 218.677 333.538 232.802 333.538 247.528 C 333.538 278.194 309.361 303.053 279.537 303.053 C 249.715 303.053 225.535 278.194 225.535 247.528 Z" fill-rule="evenodd" style="fill: url('#gradient-1-4');" clip-path="url(#p.0)"/>
  <path stroke-width="1.0" stroke-linejoin="round" stroke-linecap="butt" d="M 460.993 372.667 C 460.993 340.724 486.448 314.824 517.85 314.824 C 532.929 314.824 547.391 320.92 558.055 331.768 C 568.718 342.616 574.707 357.328 574.707 372.667 C 574.707 404.614 549.253 430.513 517.85 430.513 C 486.448 430.513 460.993 404.614 460.993 372.667 Z" fill-rule="evenodd" style="fill: url('#gradient-1-5');" clip-path="url(#p.0)"/>
  <path stroke-width="1.0" stroke-linejoin="round" stroke-linecap="butt" d="M 175 372.207 C 175 340.259 200.28 314.365 231.464 314.365 C 246.437 314.365 260.8 320.458 271.39 331.306 C 281.978 342.153 287.927 356.863 287.927 372.207 C 287.927 404.152 262.649 430.05 231.464 430.05 C 200.28 430.05 175 404.152 175 372.207 Z" fill-rule="evenodd" style="fill: url('#gradient-1-6');" clip-path="url(#p.0)"/>
  <path stroke-linejoin="round" stroke-linecap="butt" d="M 304.2 362.085 C 304.2 323.931 335.51 293 374.132 293 C 392.68 293 410.469 300.277 423.583 313.232 C 436.699 326.19 444.067 343.761 444.067 362.085 C 444.067 400.243 412.757 431.173 374.132 431.173 C 335.51 431.173 304.2 400.243 304.2 362.085 Z" fill-rule="evenodd" style="fill: url('#gradient-1-8');" clip-path="url(#clip-2)" stroke-width="1.0"/>
  <path stroke-width="1.0" stroke-linejoin="round" stroke-linecap="butt" d="M 469.239 373.37 C 469.239 345.556 491.179 323.007 518.244 323.007 C 531.238 323.007 543.704 328.312 552.892 337.76 C 562.084 347.202 567.247 360.01 567.247 373.37 C 567.247 401.186 545.308 423.735 518.244 423.735 C 491.179 423.735 469.239 401.186 469.239 373.37 Z" fill-rule="evenodd" style="stroke: rgb(255, 255, 255);" clip-path="url(#clip-9)"/>
  <path stroke-width="1.0" stroke-linejoin="round" stroke-linecap="butt" d="M 183.369 371.719 C 183.369 343.917 205.145 321.379 232.009 321.379 C 244.91 321.379 257.281 326.681 266.405 336.125 C 275.527 345.565 280.651 358.367 280.651 371.719 C 280.651 399.522 258.872 422.06 232.009 422.06 C 205.145 422.06 183.369 399.522 183.369 371.719 Z" fill-rule="evenodd" style="stroke: rgb(255, 255, 255);" clip-path="url(#clip-3)"/>
  <path stroke-width="1.0" stroke-linejoin="round" stroke-linecap="butt" d="M 259.297 484.963 C 259.297 457.53 280.899 435.291 307.548 435.291 C 320.347 435.291 332.62 440.524 341.666 449.84 C 350.717 459.152 355.801 471.788 355.801 484.963 C 355.801 512.394 334.197 534.634 307.548 534.634 C 280.899 534.634 259.297 512.394 259.297 484.963 Z" fill-rule="evenodd" style="stroke: rgb(255, 255, 255);" clip-path="url(#clip-4)"/>
  <path stroke-width="1.0" stroke-linejoin="round" stroke-linecap="butt" d="M 394.246 485.049 C 394.246 457.484 415.955 435.134 442.733 435.134 C 455.592 435.134 467.927 440.397 477.02 449.756 C 486.11 459.116 491.219 471.811 491.219 485.049 C 491.219 512.617 469.512 534.967 442.733 534.967 C 415.955 534.967 394.246 512.617 394.246 485.049 Z" fill-rule="evenodd" style="stroke: rgb(255, 255, 255);" clip-path="url(#clip-5)"/>
  <path stroke-width="1.0" stroke-linejoin="round" stroke-linecap="butt" d="M 329.822 588.352 C 329.822 563.31 349.37 543.013 373.481 543.013 C 385.058 543.013 396.168 547.791 404.354 556.293 C 412.545 564.795 417.142 576.33 417.142 588.352 C 417.142 613.393 397.593 633.694 373.481 633.694 C 349.37 633.694 329.822 613.393 329.822 588.352 Z" fill-rule="evenodd" style="stroke: rgb(255, 255, 255);" clip-path="url(#clip-6)"/>
  <path stroke-linejoin="round" stroke-linecap="butt" d="M 307.281 362.033 C 307.281 325.58 337.192 296.03 374.094 296.03 C 391.815 296.03 408.807 302.985 421.338 315.362 C 433.866 327.741 440.906 344.529 440.906 362.033 C 440.906 398.489 410.995 428.036 374.094 428.036 C 337.192 428.036 307.281 398.489 307.281 362.033 Z" fill-rule="evenodd" style="stroke-width: 1.5px;" clip-path="url(#clip-10)"/>
  <path stroke-width="1.0" stroke-linejoin="round" stroke-linecap="butt" d="M 232.556 247.461 C 232.556 220.311 253.747 198.301 279.881 198.301 C 292.432 198.301 304.469 203.48 313.346 212.699 C 322.222 221.918 327.206 234.421 327.206 247.461 C 327.206 274.612 306.018 296.621 279.881 296.621 C 253.747 296.621 232.556 274.612 232.556 247.461 Z" fill-rule="evenodd" style="stroke: rgb(255, 255, 255);" clip-path="url(#clip-7)"/>
  <path stroke-linejoin="round" stroke-linecap="butt" d="M 313.705 362.033 C 313.705 329.086 340.74 302.376 374.094 302.376 C 390.111 302.376 405.47 308.663 416.795 319.849 C 428.119 331.038 434.482 346.212 434.482 362.033 C 434.482 394.983 407.447 421.69 374.094 421.69 C 340.74 421.69 313.705 394.983 313.705 362.033 Z" fill-rule="evenodd" style="stroke: rgb(255, 255, 255); fill: rgb(0, 0, 0); stroke-width: 3px;" clip-path="url(#clip-8)"/>
  <path stroke-linejoin="round" stroke-linecap="butt" d="M 320.115 361.984 C 320.115 332.537 344.279 308.663 374.09 308.663 C 388.406 308.663 402.131 314.284 412.254 324.282 C 422.377 334.282 428.063 347.845 428.063 361.984 C 428.063 391.435 403.899 415.305 374.09 415.305 C 344.279 415.305 320.115 391.435 320.115 361.984 Z" fill-rule="evenodd" style="stroke-width: 1.5px; fill: url('#gradient-1-7');" clip-path="url(#clip-1)"/>
  <ellipse style="fill: rgb(255, 255, 255);" cx="386.597" cy="335.739" rx="3.821" ry="3.745"/>
  <ellipse style="fill: rgb(255, 255, 255);" cx="398.875" cy="342.153" rx="7.835" ry="7.678"/>
</svg>