<?xml version="1.0" encoding="utf-8"?>
<svg viewBox="0 0 800 800" fill="none" stroke="none" stroke-linecap="square" stroke-miterlimit="10" xmlns="http://www.w3.org/2000/svg" xmlns:xlink="http://www.w3.org/1999/xlink">
  <defs>
    <linearGradient gradientUnits="userSpaceOnUse" x1="508.23" y1="101.466" x2="508.23" y2="299.648" id="gradient-3" gradientTransform="matrix(0.977909, 0, 0, 1, 36.221589, 0.42662)">
      <stop offset="0" style="stop-color: rgb(18.431% 65.098% 52.941%)"/>
      <stop offset="1" style="stop-color: rgb(0% 39.725% 29.439%)"/>
    </linearGradient>
    <linearGradient id="gradient-0-1" gradientUnits="userSpaceOnUse" x1="352.934" y1="100" x2="352.934" y2="272.419" gradientTransform="matrix(0.977909, 0, 0, 1, 11.773847, -0.000047)" xlink:href="#gradient-0"/>
    <linearGradient id="gradient-0">
      <stop offset="0" style="stop-color: rgb(47, 166, 135);"/>
      <stop offset="1" style="stop-color: rgb(11, 121, 90);"/>
    </linearGradient>
    <linearGradient id="gradient-1-0" gradientUnits="userSpaceOnUse" x1="399.158" y1="293.007" x2="399.158" y2="431.18" gradientTransform="matrix(1, 0, 0, 1, 0.854469, -0.000047)" xlink:href="#gradient-1"/>
    <linearGradient id="gradient-1">
      <stop offset="0" style="stop-color: rgb(179, 68, 170);"/>
      <stop offset="1" style="stop-color: rgb(90, 11, 121);"/>
    </linearGradient>
    <linearGradient id="gradient-1-7" gradientUnits="userSpaceOnUse" x1="374.133" y1="293" x2="374.133" y2="431.173" gradientTransform="matrix(1, 0, 0, 1, 25.854492, 0)" xlink:href="#gradient-1"/>
    <radialGradient gradientUnits="userSpaceOnUse" cx="374.089" cy="361.984" r="55.479" id="gradient-1-8" gradientTransform="matrix(0.952277, 0, 0, 0.952277, 43.707031, 17.274857)" xlink:href="#gradient-1"/>
    <linearGradient id="gradient-1-1" gradientUnits="userSpaceOnUse" x1="398.522" y1="537.635" x2="398.522" y2="640" gradientTransform="matrix(1.004208, 0, 0, 0.976894, -0.198884, 14.78778)" xlink:href="#gradient-1"/>
    <linearGradient id="gradient-1-2" gradientUnits="userSpaceOnUse" x1="467.447" y1="428.404" x2="467.447" y2="541.918" gradientTransform="matrix(1, 0, 0, 1, -0.499359, -0.000047)" xlink:href="#gradient-1"/>
    <linearGradient id="gradient-1-3" gradientUnits="userSpaceOnUse" x1="332.36" y1="428.404" x2="332.36" y2="541.918" gradientTransform="matrix(1, 0, 0, 1, -0.499359, -0.000047)" xlink:href="#gradient-1"/>
    <linearGradient id="gradient-1-6" gradientUnits="userSpaceOnUse" x1="256.464" y1="314.365" x2="256.464" y2="430.05" gradientTransform="matrix(1.018357, 0, 0, 0.994079, -3.671589, 2.49616)" xlink:href="#gradient-1"/>
    <linearGradient id="gradient-1-5" gradientUnits="userSpaceOnUse" x1="256.464" y1="314.365" x2="256.464" y2="430.05" gradientTransform="matrix(1.018357, 0, 0, 0.994079, 284.036682, 2.496857)" xlink:href="#gradient-1"/>
    <linearGradient id="gradient-1-4" gradientUnits="userSpaceOnUse" x1="332.36" y1="428.404" x2="332.36" y2="541.918" gradientTransform="matrix(1, 0, 0, 1, -0.499359, -0.000047)" xlink:href="#gradient-1"/>
  </defs>
  <clipPath id="p.0">
    <path d="M -22544.05 -7860.346 L 30513.698 -7860.346 L 30513.698 24513.007 L -22544.05 24513.007 L -22544.05 -7860.346 Z" clip-rule="nonzero"/>
  </clipPath>
  <clipPath id="clip-2">
    <path d="M -23000.974 -8162.833 L 30645.969 -8162.833 L 30645.969 25373.265 L -23000.974 25373.265 L -23000.974 -8162.833 Z" clip-rule="nonzero" style="fill: rgb(0, 0, 0);"/>
  </clipPath>
  <clipPath id="clip-8">
    <path d="M -273.979 -65.233 L 1073.875 -65.233 L 1073.875 925.391 L -273.979 925.391 L -273.979 -65.233 Z" clip-rule="nonzero"/>
  </clipPath>
  <clipPath id="clip-1">
    <path d="M -167.062 2.506 L 966.949 2.506 L 966.949 835.962 L -167.062 835.962 L -167.062 2.506 Z" clip-rule="nonzero"/>
  </clipPath>
  <clipPath id="clip-3">
    <path d="M -21611.032 -7326.775 L 28823.663 -7326.775 L 28823.663 22924.224 L -21611.032 22924.224 L -21611.032 -7326.775 Z" clip-rule="nonzero"/>
  </clipPath>
  <clipPath id="clip-11">
    <path d="M -23261.825 -8061.805 L 31987.789 -8061.805 L 31987.789 25077.174 L -23261.825 25077.174 L -23261.825 -8061.805 Z" clip-rule="nonzero"/>
  </clipPath>
  <clipPath id="clip-12">
    <path d="M -21328.252 -7328.682 L 29118.948 -7328.682 L 29118.948 22929.81 L -21328.252 22929.81 L -21328.252 -7328.682 Z" clip-rule="nonzero"/>
  </clipPath>
  <clipPath id="clip-7">
    <path d="M -23593.444 -7860.346 L 31888.645 -7860.346 L 31888.645 24513.007 L -23593.444 24513.007 L -23593.444 -7860.346 Z" clip-rule="nonzero"/>
  </clipPath>
  <path stroke-width="1.0" stroke-linejoin="round" stroke-linecap="butt" d="M 553.312 274.829 C 552.249 275.818 542.099 288.907 512.338 297.914 C 491.115 304.333 469.791 295.008 460.159 288.725 C 450.249 282.265 440.539 269.881 439.769 258.124 C 438.959 245.766 443.548 235.979 445.731 231.012 C 449.098 223.345 459.979 212.332 476.663 204.051 C 496.183 194.364 506.951 191.759 525.356 184.975 C 535.052 181.408 557.296 173.956 557.665 173.655 C 559.794 171.923 545.913 173.754 529.612 176.594 C 509.948 180.022 480.017 188.985 462.599 196.524 C 435.831 208.11 425.293 223.419 425.199 223.099 C 423.609 217.593 417.914 194.326 418.06 177.376 C 418.145 167.325 420.511 156.876 425.293 148.032 C 432.08 135.476 437.56 129.27 444.653 122.696 C 449.52 118.19 457.953 113.017 466.529 109.142 C 474.515 105.537 482.15 103.791 483.082 103.625 C 486.596 103.001 497.121 101.158 496.632 102.212 C 495.922 103.733 494.494 105.43 493.777 107.509 C 492.977 109.826 492.844 112.244 494.66 113.822 C 497.529 116.311 506.876 113.027 509.84 112.076 C 518.033 109.453 536.219 105.331 550.54 104.522 C 561.76 103.889 567.689 104.816 567.68 104.876 C 567.593 105.476 566.457 106.82 565.801 108.177 C 563.843 112.2 563.98 118.077 568.829 119.052 C 575.176 120.333 581.592 118.758 585.521 118.365 C 589.451 117.977 594.091 117.764 598.587 118.152 C 603.082 118.546 607.911 119.552 612.496 120.707 C 617.08 121.859 621.117 123.173 626.09 125.072 C 631.063 126.969 638.622 130.072 642.337 132.092 C 646.054 134.115 648.513 134.239 648.388 137.2 C 648.264 140.161 647.234 139.486 641.589 149.862 C 635.943 160.237 621.452 187.426 614.516 199.453 C 607.577 211.479 606.004 214.507 599.968 222.01 C 597.407 225.193 575.447 242.189 577.237 243.419 C 577.938 243.903 579.012 244.814 579.373 245.465 C 579.949 246.504 578.18 247.26 576.189 248.743 C 573.36 250.853 558.014 259.218 551.398 263.89 C 549.528 265.209 548.648 266.211 548.651 267.223 C 548.656 268.988 551.156 269.892 553.418 270.699 C 554.874 271.219 556.305 271.29 555.847 271.794 C 555.355 272.337 553.95 274.219 553.289 274.842" fill-rule="evenodd" style="fill: url('#gradient-3');" clip-path="url(#p.0)" transform="matrix(0.9999999999999999, 0, 0, 0.9999999999999999, 0, 7.105427357601002e-15)"/>
  <path stroke-width="1.0" stroke-linejoin="round" stroke-linecap="butt" d="M 416.59 271.565 C 416.097 266.741 415.038 257.144 408.219 237.648 C 401.505 218.442 389.503 194.463 376.676 172.714 C 365.964 154.552 351.098 136.626 342.15 125.287 C 337.127 118.916 319.696 100.579 319.556 100.551 C 317.43 100.104 313.877 99.659 311.983 100.384 C 308.435 101.743 302.261 109.257 300.039 111.661 C 296.296 115.706 297.333 117.705 297.454 117.841 C 302.482 123.727 315.696 138.842 322.406 147.117 C 329.511 155.881 333.102 160.406 339.42 169.528 C 345.735 178.654 354.426 191.752 360.31 201.864 C 366.195 211.975 370.686 220.985 374.731 230.189 C 378.775 239.395 382.295 250.1 384.579 257.088 C 386.61 263.299 387.57 269.056 388.209 271.863 C 388.291 272.215 416.764 273.074 416.589 271.52" fill-rule="evenodd" style="fill: url('#gradient-0-1');" clip-path="url(#p.0)" transform="matrix(0.9999999999999999, 0, 0, 0.9999999999999999, 0, 7.105427357601002e-15)"/>
  <g transform="matrix(0.978671, 0, 0, 1.013171, 9.027076, -1.837304)" style="">
    <path stroke-width="1.0" stroke-linejoin="round" stroke-linecap="butt" d="M 330.078 362.092 C 330.078 323.938 361.388 293.007 400.01 293.007 C 418.558 293.007 436.347 300.284 449.461 313.239 C 462.577 326.197 469.945 343.768 469.945 362.092 C 469.945 400.25 438.635 431.18 400.01 431.18 C 361.388 431.18 330.078 400.25 330.078 362.092 Z" fill-rule="evenodd" style="fill: url('#gradient-1-0');" clip-path="url(#p.0)"/>
    <path stroke-linejoin="round" stroke-linecap="butt" d="M 330.054 362.085 C 330.054 323.931 361.364 293 399.986 293 C 418.534 293 436.323 300.277 449.437 313.232 C 462.553 326.19 469.921 343.761 469.921 362.085 C 469.921 400.243 438.611 431.173 399.986 431.173 C 361.364 431.173 330.054 400.243 330.054 362.085 Z" fill-rule="evenodd" style="fill: url('#gradient-1-7');" clip-path="url(#clip-2)" stroke-width="1.0"/>
    <path stroke-linejoin="round" stroke-linecap="butt" d="M 337.154 362.033 C 337.154 327.773 365.266 300 399.948 300 C 416.603 300 432.573 306.537 444.35 318.169 C 456.125 329.804 462.741 345.582 462.741 362.033 C 462.741 396.296 434.629 424.066 399.948 424.066 C 365.266 424.066 337.154 396.296 337.154 362.033 Z" fill-rule="evenodd" style="stroke: rgb(255, 255, 255); fill: rgb(0, 0, 0); stroke-width: 1.50614px;" clip-path="url(#clip-8)"/>
    <path stroke-linejoin="round" stroke-linecap="butt" d="M 347.112 361.984 C 347.112 333.16 370.764 309.793 399.944 309.793 C 413.958 309.793 427.392 315.292 437.302 325.079 C 447.209 334.868 452.774 348.143 452.774 361.984 C 452.774 390.812 429.123 414.175 399.944 414.175 C 370.764 414.175 347.112 390.812 347.112 361.984 Z" fill-rule="evenodd" style="stroke-width: 1.5px; fill: url('#gradient-1-8');" clip-path="url(#clip-1)"/>
    <ellipse style="fill: rgb(255, 255, 255);" cx="412.451" cy="335.739" rx="3.821" ry="3.745"/>
    <ellipse style="fill: rgb(255, 255, 255);" cx="424.729" cy="342.153" rx="7.835" ry="7.678"/>
  </g>
  <g style="" transform="matrix(0.9779090285301207, 0, 0, 0.9999999999999999, 9.331365585327148, 7.105427357601002e-15)">
    <g>
      <path stroke-width="1.0" stroke-linejoin="round" stroke-linecap="butt" d="M 350 589.998 C 350 562.384 372.384 540 399.999 540 C 413.259 540 425.977 545.267 435.355 554.644 C 444.732 564.019 450 576.74 450 589.998 C 450 617.613 427.613 640 399.999 640 C 372.384 640 350 617.613 350 589.998 Z" fill-rule="evenodd" style="fill: url('#gradient-1-1');" clip-path="url(#p.0)"/>
      <clipPath id="clip-6">
        <path d="M -21184.026 -7011.763 L 28726.56 -7011.763 L 28726.56 22110.663 L -21184.026 22110.663 L -21184.026 -7011.763 Z" clip-rule="nonzero"/>
      </clipPath>
      <path stroke-linejoin="round" stroke-linecap="butt" d="M 355.021 589.998 C 355.021 565.157 375.157 545.021 399.999 545.021 C 411.927 545.021 423.368 549.759 431.805 558.194 C 440.241 566.628 444.979 578.072 444.979 589.998 C 444.979 614.84 424.84 634.979 399.999 634.979 C 375.157 634.979 355.021 614.84 355.021 589.998 Z" fill-rule="evenodd" style="stroke: rgb(255, 255, 255); stroke-width: 1.51675px;" clip-path="url(#clip-6)"/>
    </g>
  </g>
  <g transform="matrix(0.9655930399894713, 0, 0, 0.9690430164337157, 15.664007186889648, 14.858103752136238)" style="">
    <path stroke-width="1.0" stroke-linejoin="round" stroke-linecap="butt" d="M 411.247 485.162 C 411.247 453.815 436.187 428.404 466.948 428.404 C 481.724 428.404 495.892 434.385 506.337 445.028 C 516.781 455.671 522.65 470.108 522.65 485.162 C 522.65 516.506 497.714 541.918 466.948 541.918 C 436.187 541.918 411.247 516.506 411.247 485.162 Z" fill-rule="evenodd" style="fill: url('#gradient-1-2');" clip-path="url(#p.0)"/>
    <clipPath id="clip-5">
      <path d="M -21315.69 -7284.378 L 28912.013 -7284.378 L 28912.013 22841.8 L -21315.69 22841.8 L -21315.69 -7284.378 Z" clip-rule="nonzero"/>
    </clipPath>
    <path stroke-linejoin="round" stroke-linecap="butt" d="M 416.266 485.162 C 416.266 456.665 438.939 433.564 466.904 433.564 C 480.337 433.564 493.218 439 502.713 448.676 C 512.208 458.351 517.543 471.477 517.543 485.162 C 517.543 513.657 494.874 536.758 466.904 536.758 C 438.939 536.758 416.266 513.657 416.266 485.162 Z" fill-rule="evenodd" style="stroke: rgb(255, 255, 255); stroke-width: 1.55068px;" clip-path="url(#clip-5)"/>
  </g>
  <g transform="matrix(0.9656020402908324, 0, 0, 0.9690430164337157, 13.99788761138916, 14.858103752136238)" style="">
    <path stroke-width="1.0" stroke-linejoin="round" stroke-linecap="butt" d="M 276.16 485.162 C 276.16 453.815 301.097 428.404 331.859 428.404 C 346.633 428.404 360.802 434.385 371.246 445.028 C 381.694 455.671 387.562 470.108 387.562 485.162 C 387.562 516.506 362.624 541.918 331.859 541.918 C 301.097 541.918 276.16 516.506 276.16 485.162 Z" fill-rule="evenodd" style="fill: url('#gradient-1-3');" clip-path="url(#p.0)"/>
    <clipPath id="clip-4">
      <path d="M -21328.284 -7284.677 L 28900.355 -7284.677 L 28900.355 22842.665 L -21328.284 22842.665 L -21328.284 -7284.677 Z" clip-rule="nonzero"/>
    </clipPath>
    <path stroke-linejoin="round" stroke-linecap="butt" d="M 281.266 485.162 C 281.266 456.664 303.937 433.562 331.903 433.562 C 345.335 433.562 358.216 438.999 367.711 448.675 C 377.209 458.351 382.544 471.476 382.544 485.162 C 382.544 513.657 359.873 536.76 331.903 536.76 C 303.937 536.76 281.266 513.657 281.266 485.162 Z" fill-rule="evenodd" style="stroke: rgb(255, 255, 255); stroke-width: 1.55067px;" clip-path="url(#clip-4)"/>
  </g>
  <g transform="matrix(0.977909, 0, 0, 1, 9.331246, -2)" style="">
    <g>
      <g transform="matrix(1.043478, 0, 0, 1.043478, -17.391205, -16.695606)">
        <path stroke-width="1.0" stroke-linejoin="round" stroke-linecap="butt" d="M 200 372.499 C 200 340.741 225.744 315 257.5 315 C 272.748 315 287.375 321.057 298.159 331.841 C 308.942 342.623 315 357.246 315 372.499 C 315 404.255 289.258 430 257.5 430 C 225.744 430 200 404.255 200 372.499 Z" fill-rule="evenodd" style="fill: url('#gradient-1-6');" clip-path="url(#p.0)"/>
        <path stroke-linejoin="round" stroke-linecap="butt" d="M 204.512 372.499 C 204.512 343.507 228.011 320.011 257.001 320.011 C 270.919 320.011 284.272 325.539 294.115 335.386 C 303.961 345.227 309.49 358.576 309.49 372.499 C 309.49 401.489 285.993 424.989 257.001 424.989 C 228.011 424.989 204.512 401.489 204.512 372.499 Z" fill-rule="evenodd" style="stroke: rgb(255, 255, 255); stroke-width: 1.45356px;" clip-path="url(#clip-3)"/>
      </g>
    </g>
  </g>
  <g transform="matrix(1.020426, 0, 0, 1.043478, -8.149273, -18.695585)" style="">
    <g transform="matrix(1, 0, 0, 1, -2.708008, 0)">
      <path stroke-width="1.0" stroke-linejoin="round" stroke-linecap="butt" d="M 487.708 372.499 C 487.708 340.741 513.452 315 545.208 315 C 560.456 315 575.083 321.057 585.867 331.841 C 596.65 342.623 602.708 357.246 602.708 372.499 C 602.708 404.255 576.966 430 545.208 430 C 513.452 430 487.708 404.255 487.708 372.499 Z" fill-rule="evenodd" style="fill: url('#gradient-1-5');" clip-path="url(#clip-11)"/>
      <path stroke-linejoin="round" stroke-linecap="butt" d="M 492.701 372.499 C 492.701 343.5 516.206 319.998 545.203 319.998 C 559.124 319.998 572.48 325.528 582.326 335.377 C 592.174 345.221 597.705 358.573 597.705 372.499 C 597.705 401.496 574.202 425.002 545.203 425.002 C 516.206 425.002 492.701 401.496 492.701 372.499 Z" fill-rule="evenodd" style="stroke: rgb(255, 255, 255); stroke-width: 1.45356px;" clip-path="url(#clip-12)"/>
    </g>
  </g>
  <g transform="matrix(0.9217100143432616, 0, 0, 0.9249950051307677, -0.7310690283776466, -206.27154541015622)" style="">
    <path stroke-width="1.0" stroke-linejoin="round" stroke-linecap="butt" d="M 276.16 485.162 C 276.16 453.815 301.097 428.404 331.859 428.404 C 346.633 428.404 360.802 434.385 371.246 445.028 C 381.694 455.671 387.562 470.108 387.562 485.162 C 387.562 516.506 362.624 541.918 331.859 541.918 C 301.097 541.918 276.16 516.506 276.16 485.162 Z" fill-rule="evenodd" style="fill: url('#gradient-1-4');" clip-path="url(#clip-7)"/>
    <clipPath id="clip-9">
      <path d="M -21328.284 -7284.677 L 28900.355 -7284.677 L 28900.355 22842.665 L -21328.284 22842.665 L -21328.284 -7284.677 Z" clip-rule="nonzero"/>
    </clipPath>
    <path stroke-linejoin="round" stroke-linecap="butt" d="M 281.266 485.162 C 281.266 456.664 303.937 433.562 331.903 433.562 C 345.335 433.562 358.216 438.999 367.711 448.675 C 377.209 458.351 382.544 471.476 382.544 485.162 C 382.544 513.657 359.873 536.76 331.903 536.76 C 303.937 536.76 281.266 513.657 281.266 485.162 Z" fill-rule="evenodd" style="stroke: rgb(255, 255, 255); stroke-width: 1.62451px;" clip-path="url(#clip-9)"/>
  </g>
</svg>